Coordinates
version=1
nRows=6
nColumns=107
inDegrees=yes

Units are S.I. units (second, meters, Newtons, ...)
If the header above contains a line with 'inDegrees', this indicates whether rotational values are in degrees (yes) or radians (no).

endheader
time	sternoclavicular_r2	sternoclavicular_r3	unrotscap_r3	unrotscap_r2	acromioclavicular_r2	acromioclavicular_r3	acromioclavicular_r1	unrothum_r1	unrothum_r3	unrothum_r2	elv_angle	shoulder_elv	shoulder1_r2	shoulder_rot	elbow_flexion	pro_sup	deviation	flexion	proximal_distal_r1	proximal_distal_r3	cmc_flexion	cmc_abduction	mp_flexion	ip_flexion	mcp2_flexion	mcp2_abduction	pm2_flexion	md2_flexion	mcp3_flexion	mcp3_abduction	pm3_flexion	md3_flexion	mcp4_flexion	mcp4_abduction	pm4_flexion	md4_flexion	mcp5_flexion	mcp5_abduction	pm5_flexion	md5_flexion	bicpt_tx	bicpt_ty	bicpt_tz	bicpt2_tx	bicpt2_ty	bicpt2_tz	ptpt_tx	ptpt_ty	ptpt_tz	FCUpt_tx	FCUpt_ty	FCUpt_tz	EDCpt_tx	EDCpt_ty	EDCpt_tz	APLpt_tx	APLpt_ty	APLpt_tz	FPLpt_tx	FPLpt_ty	FPLpt_tz	FPLpt2_tx	FPLpt2_ty	FPLpt2_tz	PEC1pt2_tx	PEC1pt2_ty	PEC1pt2_tz	PEC1pt3_tx	PEC1pt3_ty	PEC1pt3_tz	PEC2pt2_tx	PEC2pt2_ty	PEC2pt2_tz	PEC2pt3_tx	PEC2pt3_ty	PEC2pt3_tz	PEC3pt2_tx	PEC3pt2_ty	PEC3pt2_tz	PEC3pt3_tx	PEC3pt3_ty	PEC3pt3_tz	DELT2pt2a_tx	DELT2pt2a_ty	DELT2pt2a_tz	DELT2pt2_tx	DELT2pt2_ty	DELT2pt2_tz	LAT1pt2_tx	LAT1pt2_ty	LAT1pt2_tz	LAT1pt3_tx	LAT1pt3_ty	LAT1pt3_tz	LAT2pt2_tx	LAT2pt2_ty	LAT2pt2_tz	LAT2pt3_tx	LAT2pt3_ty	LAT2pt3_tz	LAT3pt2_tx	LAT3pt2_ty	LAT3pt2_tz	LAT3pt3_tx	LAT3pt3_ty	LAT3pt3_tz
      0.00000000	     -0.31192897	      0.13211839	     -0.13211839	      0.31192897	     -0.06315927	      0.51043101	      0.22943523	     -0.22943523	     -0.51043101	      0.06315927	    101.14157337	     73.85195568	     -1.76525347	    -37.99689194	     32.84144694	     88.08178441	      0.38636122	     -0.36379811	      0.40216439	     -0.18189905	     42.88967526	    -21.45549074	     17.86208694	      8.58687105	     99.66615893	     10.53007234	     73.41351497	     86.33532247	     96.99136187	     -0.89283573	     69.90456558	     67.25408950	     92.49901888	    -13.74323550	     92.22565289	     54.44497399	     80.95299627	    -14.27173350	    105.09421462	      5.26266793	      0.00098629	     -0.03136413	     -0.00490630	      0.01401976	     -0.01912154	     -0.00071650	      0.00104175	     -0.06910834	     -0.00714546	      0.01297782	     -0.18216662	      0.00014277	     -0.01056979	      0.00369292	     -0.00082524	      0.00026139	      0.00010455	      0.00052277	      0.00033458	      0.00100373	      0.00056460	     -0.00000553	     -0.00005028	     -0.00006034	      0.00242071	      0.00849298	      0.00590816	     -0.00791858	      0.01911947	     -0.01813477	      0.00242071	      0.00849298	      0.00590816	      0.00053338	      0.01772448	     -0.00931356	      0.00385932	      0.00472284	      0.01574695	      0.00000000	      0.00729113	      0.00000000	     -0.00693388	     -0.03204357	     -0.00600899	      0.02199543	     -0.00103824	     -0.01175037	     -0.00086161	      0.01444217	     -0.00590816	      0.00237968	      0.02084268	     -0.01723214	     -0.00578507	      0.01251381	     -0.00529273	     -0.01206250	      0.02642261	     -0.02958184	     -0.02264795	      0.01399085	     -0.00709800	     -0.01501658	      0.03052550	     -0.03696704
      0.03333333	     -0.31193133	      0.13211939	     -0.13211939	      0.31193133	     -0.06315975	      0.51043488	      0.22943697	     -0.22943697	     -0.51043488	      0.06315975	    100.99241053	     73.85251572	     -1.76265008	    -37.74810599	     33.10231463	     88.22006060	      0.38480739	     -0.36262393	      0.40103671	     -0.18131197	     42.61149290	    -21.24175961	     17.42580858	      8.48756319	     99.47894952	     10.79067340	     73.37141815	     86.36412463	     99.39251958	     -1.94796312	     71.64350315	     67.21350956	     92.50326178	    -13.75310272	     91.76903459	     54.15708452	     80.86223861	    -14.27451506	    104.96651193	      5.26122563	      0.00099492	     -0.03139403	     -0.00491112	      0.01400479	     -0.01919241	     -0.00069240	      0.00103153	     -0.06911495	     -0.00715660	      0.01299379	     -0.18216186	      0.00014680	     -0.01058638	      0.00370060	     -0.00082984	      0.00026089	      0.00010436	      0.00052179	      0.00033394	      0.00100183	      0.00056353	     -0.00000614	     -0.00005655	     -0.00006785	      0.00242072	      0.00849305	      0.00590821	     -0.00791864	      0.01911961	     -0.01813491	      0.00242072	      0.00849305	      0.00590821	      0.00053338	      0.01772462	     -0.00931363	      0.00385934	      0.00472288	      0.01574700	      0.00000000	      0.00729125	      0.00000000	     -0.00693394	     -0.03204381	     -0.00600908	      0.02191126	     -0.00102927	     -0.01160828	     -0.00086161	      0.01444228	     -0.00590821	      0.00237969	      0.02084284	     -0.01723227	     -0.00578512	      0.01251391	     -0.00529277	     -0.01206259	      0.02642281	     -0.02958206	     -0.02264812	      0.01399096	     -0.00709805	     -0.01501669	      0.03052573	     -0.03696732
      0.06666667	     -0.31231047	      0.13227998	     -0.13227998	      0.31231047	     -0.06323652	      0.51105529	      0.22971584	     -0.22971584	     -0.51105529	      0.06323652	    100.89360123	     73.94228053	     -1.76092554	    -37.27703426	     33.04155743	     88.05103188	      0.38868067	     -0.36938969	      0.40384038	     -0.18469484	     42.62283984	    -21.17059405	     16.69689710	      8.43740381	     99.68833144	     10.92481140	     73.47714670	     86.31703432	     99.64964985	     -3.06479667	     73.95405749	     66.76409046	     93.09814836	    -13.79007437	     90.52291761	     53.08540015	     81.36298261	    -14.27444171	    105.06768800	      5.33030413	      0.00099291	     -0.03138707	     -0.00491000	      0.01402309	     -0.01917590	     -0.00072186	      0.00104402	     -0.06910687	     -0.00714298	      0.01297426	     -0.18216768	      0.00014187	     -0.01056610	      0.00369122	     -0.00082422	      0.00026367	      0.00010547	      0.00052734	      0.00033749	      0.00101248	      0.00056952	     -0.00000611	     -0.00005629	     -0.00006755	      0.00242367	      0.00850337	      0.00591539	     -0.00792826	      0.01914285	     -0.01815695	      0.00242367	      0.00850337	      0.00591539	      0.00053403	      0.01774616	     -0.00932495	      0.00386282	      0.00472862	      0.01575580	      0.00000000	      0.00730909	      0.00000000	     -0.00694236	     -0.03208276	     -0.00602391	      0.02174983	     -0.00101233	     -0.01134067	     -0.00086266	      0.01445984	     -0.00591539	      0.00238259	      0.02086817	     -0.01725321	     -0.00579215	      0.01252912	     -0.00529920	     -0.01207725	      0.02645493	     -0.02961802	     -0.02267565	      0.01400797	     -0.00710668	     -0.01503494	      0.03056284	     -0.03701225
      0.10000000	     -0.31156316	      0.13196345	     -0.13196345	      0.31156316	     -0.06308520	      0.50983242	      0.22916616	     -0.22916616	     -0.50983242	      0.06308520	    101.06002621	     73.76534784	     -1.76383020	    -38.06104335	     32.98127097	     86.25872162	      0.35947746	     -0.44402370	      0.38209080	     -0.22201185	     41.34607037	    -19.20289220	     17.45277311	      5.73080678	    100.00334904	      9.61893360	     71.28173924	     88.40617644	     98.83040942	     -3.46908804	     75.83756280	     59.78165444	     91.97572444	    -13.04384028	     94.02654772	     44.01641654	     82.61181757	    -13.66472160	    113.25751236	      5.34318445	      0.00099092	     -0.03138016	     -0.00490888	      0.01421309	     -0.01915952	     -0.00103169	      0.00117645	     -0.06902124	     -0.00699860	      0.01276773	     -0.18222896	      0.00009095	     -0.01035102	      0.00359222	     -0.00076554	      0.00028920	      0.00011568	      0.00057840	      0.00037017	      0.00111052	      0.00062467	     -0.00000854	     -0.00008393	     -0.00010072	      0.00241787	      0.00848302	      0.00590123	     -0.00790929	      0.01909705	     -0.01811351	      0.00241787	      0.00848302	      0.00590123	      0.00053275	      0.01770370	     -0.00930264	      0.00385597	      0.00471730	      0.01573844	      0.00000000	      0.00727394	      0.00000000	     -0.00692575	     -0.03200599	     -0.00599471	      0.02201689	     -0.00104055	     -0.01178717	     -0.00086060	      0.01442524	     -0.00590123	      0.00237689	      0.02081824	     -0.01721193	     -0.00577829	      0.01249914	     -0.00528652	     -0.01204835	      0.02639162	     -0.02954714	     -0.02262139	      0.01397445	     -0.00708968	     -0.01499897	      0.03048970	     -0.03692369
      0.13333333	     -0.31824015	      0.13479151	     -0.13479151	      0.31824015	     -0.06443716	      0.52075844	      0.23407734	     -0.23407734	     -0.52075844	      0.06443716	    100.27069375	     75.34618538	     -1.75005375	    -33.11164105	     31.80042811	     86.76311733	      0.36230785	     -0.45738049	      0.38426010	     -0.22869024	     43.03241494	    -22.76466686	     15.64824257	      8.91829327	    102.70305958	     11.46428330	     72.26647026	     86.61874964	    102.21280105	     -2.47452766	     74.24285768	     59.14068083	     97.36625809	    -13.95482015	     86.61360164	     42.68069614	    110.33556154	    -14.39554316	     67.99126880	      4.91719613	      0.00095186	     -0.03124482	     -0.00488708	      0.01416036	     -0.01883874	     -0.00094495	      0.00113918	     -0.06904534	     -0.00703923	      0.01282576	     -0.18221181	      0.00010503	     -0.01041155	      0.00361998	     -0.00078188	      0.00029279	      0.00011711	      0.00058557	      0.00037477	      0.00112430	      0.00063242	     -0.00000521	     -0.00004704	     -0.00005645	      0.00246968	      0.00866482	      0.00602770	     -0.00807879	      0.01950631	     -0.01850169	      0.00246968	      0.00866482	      0.00602770	      0.00054417	      0.01808310	     -0.00950200	      0.00391675	      0.00481840	      0.01589088	      0.00000000	      0.00759114	      0.00000000	     -0.00707418	     -0.03269190	     -0.00625817	      0.02019270	     -0.00086463	     -0.00907093	     -0.00087904	      0.01473438	     -0.00602770	      0.00242782	      0.02126439	     -0.01758079	     -0.00590212	      0.01276700	     -0.00539981	     -0.01230655	      0.02695721	     -0.03018036	     -0.02310618	      0.01427393	     -0.00724161	     -0.01532040	      0.03114312	     -0.03771498
      0.16666667	     -0.32032872	      0.13567613	     -0.13567613	      0.32032872	     -0.06486005	      0.52417611	      0.23561355	     -0.23561355	     -0.52417611	      0.06486005	     99.73263004	     75.84067200	     -1.74066277	    -30.90110520	     31.96760519	     86.23669552	      0.37438233	     -0.40584724	      0.39336616	     -0.20292362	     42.91816750	    -23.04110327	     15.35299499	      9.49546125	    102.66235276	     11.57808385	     71.96601924	     86.82858361	    102.56985421	     -2.32813956	     73.62217489	     59.26445416	     98.25686726	    -13.98644268	     83.85621905	     45.19420835	    113.01370903	    -14.42032163	     57.12555146	      5.01956414	      0.00095739	     -0.03126398	     -0.00489017	      0.01421539	     -0.01888416	     -0.00103547	      0.00117808	     -0.06902019	     -0.00699683	      0.01276520	     -0.18222971	      0.00009033	     -0.01034838	      0.00359101	     -0.00076483	      0.00027730	      0.00011092	      0.00055460	      0.00035494	      0.00106483	      0.00059897	     -0.00000547	     -0.00004964	     -0.00005957	      0.00248589	      0.00872168	      0.00606726	     -0.00813181	      0.01963432	     -0.01862311	      0.00248589	      0.00872168	      0.00606726	      0.00054774	      0.01820178	     -0.00956436	      0.00393557	      0.00485002	      0.01593732	      0.00000000	      0.00769180	      0.00000000	     -0.00712060	     -0.03290645	     -0.00634174	      0.01927209	     -0.00078797	     -0.00794244	     -0.00088481	      0.01483108	     -0.00606726	      0.00244376	      0.02140394	     -0.01769617	     -0.00594086	      0.01285079	     -0.00543525	     -0.01238732	      0.02713413	     -0.03037843	     -0.02325783	      0.01436761	     -0.00728914	     -0.01542095	      0.03134750	     -0.03796250
